<?xml version="1.0" encoding="utf-8"?>
<!-- Generator: Adobe Illustrator 25.4.1, SVG Export Plug-In . SVG Version: 6.00 Build 0)  -->
<svg version="1.1" id="Layer" xmlns="http://www.w3.org/2000/svg" xmlns:xlink="http://www.w3.org/1999/xlink" x="0px" y="0px"
	 viewBox="0 0 377.3 62.7" style="enable-background:new 0 0 377.3 62.7;" xml:space="preserve">
<style type="text/css">
	.st0{fill:#FFFFFF;}
	.st1{fill:#9C27B0;}
</style>
<path class="st0" d="M198.4,31.4c0-8.6,6.6-14.8,15.4-14.8c4.7,0,8.7,1.7,11.4,4.8l-3.4,3.2c-2.1-2.3-4.7-3.4-7.7-3.4
	c-5.9,0-10.3,4.2-10.3,10.1s4.3,10.1,10.3,10.1c3,0,5.6-1.1,7.7-3.4l3.4,3.3c-2.7,3.1-6.7,4.8-11.4,4.8
	C205,46.1,198.4,39.9,198.4,31.4z M255.8,17v28.7h-5.3V33.4h-14.8v12.3h-5.3V17h5.3v11.9h14.8V17H255.8z M282.1,39.1h-14.4l-2.8,6.6
	h-5.5L272.3,17h5.2l13,28.7h-5.6L282.1,39.1z M280.3,34.9l-5.4-12.5l-5.4,12.5H280.3z M312.9,45.7l-5.9-8.4c-0.4,0-0.7,0-1.1,0h-6.5
	v8.4h-5.3V17H306c7.5,0,12.2,3.9,12.2,10.2c0,4.3-2.2,7.5-6.1,9.1l6.6,9.4H312.9z M305.7,21.5h-6.2V33h6.2c4.7,0,7.1-2.1,7.1-5.7
	S310.4,21.5,305.7,21.5z M343.7,31h5v11.4c-3,2.4-7.2,3.6-11.2,3.6c-8.9,0-15.5-6.2-15.5-14.8c0-8.6,6.6-14.8,15.5-14.8
	c4.8,0,8.8,1.6,11.5,4.7l-3.4,3.3c-2.3-2.3-4.8-3.3-7.9-3.3c-6.1,0-10.4,4.1-10.4,10.1c0,5.8,4.3,10.1,10.4,10.1
	c2,0,4.1-0.4,5.9-1.5V31z M377.3,41.3v4.5h-21.5V17h21v4.5h-15.6V29H375v4.4h-13.9v7.9H377.3z"/>
<path class="st1" d="M157.1,21.2L188.9,0l-26.4,39.6l-6.5-6.5C152.5,29.7,153.1,23.9,157.1,21.2z M185.5,29.6l-6.5-6.5l-26.4,39.6
	l31.7-21.2C188.4,38.9,188.9,33.1,185.5,29.6z"/>
<path class="st0" d="M0,42.7l1.8-4.1c2.3,1.8,5.9,3.2,9.5,3.2c4.5,0,6.4-1.6,6.4-3.7c0-6.2-17.1-2.1-17.1-12.8
	c0-4.6,3.7-8.6,11.6-8.6c3.4,0,7.1,0.9,9.6,2.5l-1.7,4.1c-2.6-1.5-5.4-2.3-7.9-2.3c-4.4,0-6.2,1.7-6.2,3.9c0,6.1,17,2.1,17,12.7
	c0,4.6-3.7,8.5-11.6,8.5C6.8,46.1,2.4,44.7,0,42.7z M28,33.2V17h5.3v16c0,5.9,2.7,8.4,7.3,8.4s7.3-2.5,7.3-8.4V17h5.2v16.2
	c0,8.4-4.7,12.9-12.5,12.9C32.7,46.1,28,41.6,28,33.2z M84.6,27.2c0,6.3-4.7,10.2-12.2,10.2h-6.5v8.3h-5.3V17h11.8
	C79.9,17,84.6,20.9,84.6,27.2z M79.2,27.2c0-3.6-2.4-5.7-7.1-5.7h-6.2v11.4h6.2C76.8,32.9,79.2,30.8,79.2,27.2z M111.4,41.3v4.5
	H89.9V17h21v4.5H95.2V29h13.9v4.4H95.2v7.9H111.4z M136.2,45.7l-5.9-8.4c-0.4,0-0.7,0-1.1,0h-6.5v8.4h-5.3V17h11.8
	c7.5,0,12.2,3.9,12.2,10.2c0,4.3-2.2,7.5-6.1,9.1l6.6,9.4H136.2z M128.9,21.5h-6.2V33h6.2c4.7,0,7.1-2.1,7.1-5.7
	S133.6,21.5,128.9,21.5z"/>
</svg>
