<svg xmlns="http://www.w3.org/2000/svg" viewBox="0 0 377.31 62.74">
<defs><style>.cls-1{fill:#9c27b0;}.cls-2{fill:#fff;}</style></defs>
<title>Logo</title><g id="Ebene_2" data-name="Ebene 2"><g id="Logo">
<polygon class="cls-1" points="190.66 0 150.74 28.52 162.15 39.92 190.66 0"/>
<polygon class="cls-1" points="150.74 62.74 190.66 34.22 179.26 22.81 150.74 62.74"/>
<path class="cls-2" d="M0,42.68l1.85-4.14a15.84,15.84,0,0,0,9.47,3.16c4.47,0,6.35-1.6,6.35-3.73,0-6.19-17-2.13-17-12.79,0-4.64,3.69-8.57,11.56-8.57a18.14,18.14,0,0,1,9.55,2.54l-1.68,4.14A15.89,15.89,0,0,0,12.14,21C7.71,21,5.9,22.76,5.9,24.93c0,6.11,17,2.13,17,12.67,0,4.59-3.73,8.53-11.6,8.53C6.85,46.13,2.38,44.73,0,42.68Z"/><path class="cls-2" d="M28,33.21V17h5.33V33c0,5.9,2.67,8.44,7.3,8.44s7.26-2.54,7.26-8.44V17h5.24V33.21c0,8.37-4.71,12.92-12.54,12.92S28,41.58,28,33.21Z"/><path class="cls-2" d="M84.58,27.23c0,6.31-4.67,10.21-12.22,10.21H65.88v8.28H60.55V17H72.36C79.91,17,84.58,20.87,84.58,27.23Zm-5.37,0c0-3.61-2.42-5.7-7.09-5.7H65.88v11.4h6.24C76.79,32.93,79.21,30.84,79.21,27.23Z"/><path class="cls-2" d="M111.43,41.25v4.47H89.91V17h21v4.47H95.24V29H109.1v4.39H95.24v7.91Z"/><path class="cls-2" d="M136.16,45.72l-5.87-8.41a10.11,10.11,0,0,1-1.1,0h-6.48v8.37h-5.33V17h11.81c7.54,0,12.21,3.85,12.21,10.21a9.18,9.18,0,0,1-6.1,9.06l6.6,9.43Zm-7.22-24.19h-6.23V33h6.23c4.67,0,7.09-2.13,7.09-5.74S133.61,21.53,128.94,21.53Z"/><path class="cls-2" d="M198.39,31.37c0-8.57,6.56-14.76,15.38-14.76a14.54,14.54,0,0,1,11.35,4.79l-3.44,3.24A10.1,10.1,0,0,0,214,21.28c-5.94,0-10.25,4.18-10.25,10.09S208.07,41.45,214,41.45a10,10,0,0,0,7.67-3.4l3.44,3.28c-2.66,3.12-6.68,4.8-11.4,4.8C205,46.13,198.39,39.94,198.39,31.37Z"/><path class="cls-2" d="M255.75,17v28.7h-5.33V33.42H235.57v12.3h-5.33V17h5.33V28.87h14.85V17Z"/><path class="cls-2" d="M282.07,39.08H267.72l-2.83,6.64h-5.5L272.31,17h5.25l12.95,28.7h-5.57Zm-1.77-4.19-5.41-12.54-5.37,12.54Z"/><path class="cls-2" d="M312.94,45.72l-5.86-8.41a10.29,10.29,0,0,1-1.11,0h-6.48v8.37h-5.33V17H306c7.54,0,12.22,3.85,12.22,10.21a9.19,9.19,0,0,1-6.11,9.06l6.6,9.43Zm-7.22-24.19h-6.23V33h6.23c4.68,0,7.1-2.13,7.1-5.74S310.4,21.53,305.72,21.53Z"/><path class="cls-2" d="M343.73,31h5V42.48a18.15,18.15,0,0,1-11.23,3.65c-8.9,0-15.46-6.19-15.46-14.76s6.56-14.76,15.54-14.76c4.8,0,8.81,1.6,11.52,4.67l-3.36,3.28a10.69,10.69,0,0,0-7.92-3.28c-6.1,0-10.41,4.14-10.41,10.09s4.31,10.08,10.37,10.08A11.68,11.68,0,0,0,343.73,40Z"/><path class="cls-2" d="M377.31,41.25v4.47H355.78V17h21v4.47H361.11V29H375v4.39H361.11v7.91Z"/></g></g></svg>
